# Blender v2.77 (sub 0) OBJ File: 'lego_tool1.blend'
# www.blender.org
mtllib lego_tool1.mtl
o Cube.000_Cube.003
v 0.990281 -0.181712 0.995667
v 0.990281 -0.181711 -1.004333
v 0.990281 -1.002111 -1.004333
v 0.990281 -1.002111 0.995667
v 1.998777 -0.181711 -1.004333
v 1.998777 -1.002111 -1.004333
v 1.998777 -0.181712 0.995667
v 1.998777 -1.002111 0.995667
vn -1.0000 -0.0000 0.0000
vn 0.0000 0.0000 -1.0000
vn 1.0000 0.0000 0.0000
vn 0.0000 -0.0000 1.0000
vn 0.0000 -1.0000 -0.0000
vn 0.0000 1.0000 0.0000
usemtl None
s 1
f 1//1 2//1 3//1 4//1
f 2//2 5//2 6//2 3//2
f 5//3 7//3 8//3 6//3
f 7//4 1//4 4//4 8//4
f 4//5 3//5 6//5 8//5
f 7//6 5//6 2//6 1//6
o Cube.002
v 0.998391 0.448773 0.407652
v 0.998391 0.448773 -0.402883
v 0.998391 -0.175869 -0.402883
v 0.998391 -0.175869 0.407652
v 2.006888 0.448773 -0.402883
v 2.006888 -0.175869 -0.402883
v 2.006888 0.448773 0.407652
v 2.006888 -0.175869 0.407652
vn -1.0000 -0.0000 0.0000
vn 0.0000 0.0000 -1.0000
vn 1.0000 0.0000 0.0000
vn 0.0000 -0.0000 1.0000
vn 0.0000 -1.0000 -0.0000
vn 0.0000 1.0000 0.0000
usemtl None
s 1
f 9//7 10//7 11//7 12//7
f 10//8 13//8 14//8 11//8
f 13//9 15//9 16//9 14//9
f 15//10 9//10 12//10 16//10
f 12//11 11//11 14//11 16//11
f 15//12 13//12 10//12 9//12
o Cube.001
v 1.000000 -1.000000 -1.000000
v 1.000000 -1.000000 1.000000
v -1.000000 -1.000000 1.000000
v -1.000000 -1.000000 -1.000000
v 1.000000 1.000000 -0.999999
v -1.000000 1.000000 -1.000000
v -1.000000 1.000000 1.000000
v 0.999999 1.000000 1.000001
vn 0.0000 -1.0000 -0.0000
vn -0.0000 1.0000 0.0000
vn 1.0000 0.0000 0.0000
vn -0.0000 -0.0000 1.0000
vn -1.0000 -0.0000 0.0000
vn 0.0000 0.0000 -1.0000
usemtl Material.001
s 1
f 17//13 18//13 19//13 20//13
f 21//14 22//14 23//14 24//14
f 17//15 21//15 24//15 18//15
f 18//16 24//16 23//16 19//16
f 19//17 23//17 22//17 20//17
f 21//18 17//18 20//18 22//18
