# Blender v2.77 (sub 0) OBJ File: 'obj52.blend'
# www.blender.org
mtllib obj52.mtl
o Cube_Cube.001
v -0.597240 0.002819 -0.000052
v -0.596026 0.555131 -0.001197
v -0.596026 0.004429 -0.195586
v -0.596026 0.555131 -0.195586
v 0.396060 0.004429 -0.001197
v 0.396060 0.555131 -0.001197
v 0.396060 0.004429 -0.195586
v 0.396554 0.554787 -0.196681
v -0.593324 0.244216 1.198654
v -0.596703 0.557065 1.197184
v -0.593324 0.244216 -0.000851
v -0.593324 0.554240 -0.000851
v -0.206240 0.244216 1.196887
v -0.206240 0.554240 1.196887
v -0.206240 0.244216 -0.005778
v -0.197347 0.554443 -0.004044
v -0.197347 0.719824 -0.004044
v -0.197347 0.554443 -0.196890
v -0.197849 0.719797 -0.196842
v 0.397049 0.554443 -0.004044
v 0.397049 0.720282 -0.004044
v 0.397049 0.719716 -0.195717
v -0.197849 0.719797 0.195583
v -0.197849 0.837217 0.195583
v -0.197849 0.837217 -0.196842
v 0.596991 0.719797 0.195583
v 0.596991 0.837217 0.195583
v 0.596991 0.719797 -0.196842
v 0.596991 0.837217 -0.196842
v -0.197189 0.238931 0.997541
v -0.197189 0.756714 0.997541
v -0.197189 0.238931 0.803032
v -0.197189 0.756714 0.803032
v 0.596260 0.242291 0.997200
v 0.597460 0.756714 0.997541
v 0.597460 0.238931 0.803032
v 0.597460 0.756714 0.803032
v 0.403251 0.756869 1.196992
v 0.596260 0.515214 0.997200
v 0.403251 0.244621 1.196992
v 0.596260 0.515214 0.802842
v 0.996797 0.242291 0.997200
v 0.996797 0.515214 0.997200
v 0.996797 0.242291 0.802842
v 0.996797 0.515214 0.802842
v 0.403251 0.244621 0.997964
v 0.403251 0.756869 0.997964
v 0.596750 0.244621 1.196992
v 0.596750 0.756869 1.196992
v 0.596750 0.244621 0.997964
v -0.596488 0.003006 0.997220
v -0.596488 0.243270 0.997220
v -0.596488 0.003006 0.794218
v -0.596703 0.242712 0.802715
v 0.597555 0.003006 0.997220
v 0.402144 -0.077327 0.806563
v 0.597555 0.003006 0.794218
v 0.402144 0.316680 0.801863
v 0.402144 -0.077327 -0.397072
v 0.402144 0.316680 -0.397072
v 0.596071 -0.077327 0.801863
v 0.596071 0.316680 0.801863
v 0.596071 -0.077327 -0.397072
v 0.596071 0.316680 -0.397072
v -0.597240 0.002819 0.196884
v -0.597240 0.277413 0.196884
v 0.209493 0.003426 0.794088
v -0.597240 0.277413 -0.000052
v 0.209477 0.002819 0.196884
v 0.209477 0.277413 0.196884
v 0.209477 0.002819 -0.000052
v 0.209477 0.277413 -0.000052
v 0.211853 0.317359 0.801739
v 0.209493 0.003426 -0.000408
v 0.209493 0.317359 0.000014
v 0.402225 0.003426 0.794088
v 0.402225 0.317359 0.801739
v 0.402225 0.317359 -0.002055
v -0.597724 0.003453 0.602721
v -0.597724 0.244454 0.602721
v 0.207860 0.003453 0.793739
v 0.211630 0.240605 0.802870
v 0.209690 0.003453 0.602721
v 0.211630 0.240605 0.602721
v 0.197617 0.757049 0.997696
v 0.197974 0.797041 0.997306
v 0.197617 0.757049 0.802882
v 0.197617 0.797389 0.802882
v 0.002951 0.722735 0.997306
v 0.597431 0.797389 0.997696
v 0.002951 0.797041 0.997306
v 0.597431 0.797389 0.802882
v 0.002951 0.722735 0.603107
v 0.002951 0.797041 0.603107
v 0.197974 0.722735 0.997306
v -0.196404 -0.236501 0.196736
v 0.197974 0.722735 0.603107
v 0.197974 0.797041 0.603107
v -0.196404 0.002608 0.196736
v -0.196404 -0.236501 -0.195290
v -0.196404 0.004077 -0.195290
v 0.397078 -0.236501 0.196736
v 0.397078 0.003404 0.196736
v 0.397078 -0.236501 -0.195290
v -0.796703 0.242712 1.197184
v -0.796703 0.557065 1.197184
v -0.796703 0.242712 0.802715
v -0.796703 0.557065 0.802715
v -0.797146 0.515960 -0.001720
v -0.797146 0.242585 -0.201720
v -0.797146 0.242585 -0.001720
v -0.596703 0.557065 0.802715
v -0.797146 0.515960 -0.201720
v -0.597146 0.242585 -0.001720
v -0.597146 0.515960 -0.001720
v -0.597146 0.242585 -0.201720
v -0.597146 0.515960 -0.201720
vn -1.0000 0.0011 -0.0031
vn -0.0006 -0.0010 -1.0000
vn 1.0000 -0.0004 0.0013
vn 0.0006 0.0010 1.0000
vn 0.0008 -1.0000 -0.0041
vn 0.0002 1.0000 -0.0009
vn -1.0000 -0.0054 -0.0014
vn -0.0104 0.0029 -0.9999
vn 0.9999 -0.0143 0.0037
vn 0.0027 0.0024 1.0000
vn 0.0000 -1.0000 0.0000
vn 0.0033 1.0000 -0.0011
vn -1.0000 -0.0015 0.0013
vn 0.0011 0.0031 -1.0000
vn 1.0000 -0.0015 -0.0013
vn 0.0000 0.0000 1.0000
vn 0.0003 -1.0000 -0.0009
vn -0.0003 1.0000 -0.0015
vn -1.0000 0.0000 0.0000
vn 0.0000 0.0000 -1.0000
vn 1.0000 0.0000 0.0000
vn 0.0000 1.0000 0.0000
vn 1.0000 -0.0012 0.0031
vn 0.0002 -0.0003 1.0000
vn 0.0021 -1.0000 0.0087
vn -1.0000 -0.0022 -0.0031
vn -0.0002 -0.0003 -1.0000
vn 0.0042 -1.0000 0.0087
vn -0.0011 -0.0004 -1.0000
vn 1.0000 -0.0007 0.0018
vn 0.0004 1.0000 -0.0004
vn -1.0000 -0.0005 0.0005
vn 0.0002 0.0364 -0.9993
vn 1.0000 0.0029 0.0030
vn 0.0020 0.9999 -0.0101
vn 0.0121 0.0060 0.9999
vn -1.0000 0.0037 0.0015
vn -0.0075 -0.0006 -1.0000
vn 0.9999 -0.0098 -0.0039
vn 0.0000 -0.0244 0.9997
vn 0.0026 -1.0000 -0.0006
vn -1.0000 -0.0005 0.0058
vn 0.9999 -0.0121 0.0047
vn 0.0002 -0.0369 0.9993
vn 0.0003 -1.0000 -0.0012
vn 0.0037 1.0000 0.0043
vn -1.0000 0.0045 0.0009
vn 0.0002 -0.0018 -1.0000
vn 1.0000 0.0007 0.0000
vn -0.0003 0.0029 1.0000
vn -0.0008 -1.0000 0.0000
vn -0.0004 1.0000 0.0009
vn -0.0002 -0.0006 -1.0000
vn 1.0000 0.0021 -0.0013
vn -0.0010 1.0000 0.0032
vn 1.0000 0.0054 -0.0043
vn -0.0037 0.0023 1.0000
vn 0.0037 -1.0000 0.0019
usemtl None
s off
f 2//1 4//1 3//1 1//1
f 4//2 8//2 7//2 3//2
f 8//3 6//3 5//3 7//3
f 6//4 2//4 1//4 5//4
f 1//5 3//5 7//5 5//5
f 6//6 8//6 4//6 2//6
f 10//7 12//7 11//7 9//7
f 12//8 16//8 15//8 11//8
f 16//9 14//9 13//9 15//9
f 14//10 10//10 9//10 13//10
f 9//11 11//11 15//11 13//11
f 14//12 16//12 12//12 10//12
f 17//13 19//13 18//13 16//13
f 19//14 22//14 8//14 18//14
f 22//15 21//15 20//15 8//15
f 21//16 17//16 16//16 20//16
f 16//17 18//17 8//17 20//17
f 21//18 22//18 19//18 17//18
f 24//19 25//19 19//19 23//19
f 25//20 29//20 28//20 19//20
f 29//21 27//21 26//21 28//21
f 27//16 24//16 23//16 26//16
f 23//11 19//11 28//11 26//11
f 27//22 29//22 25//22 24//22
f 31//19 33//19 32//19 30//19
f 33//20 37//20 36//20 32//20
f 37//23 35//23 34//23 36//23
f 35//24 31//24 30//24 34//24
f 30//25 32//25 36//25 34//25
f 35//22 37//22 33//22 31//22
f 39//26 41//26 36//26 34//26
f 41//27 45//27 44//27 36//27
f 45//21 43//21 42//21 44//21
f 43//16 39//16 34//16 42//16
f 34//28 36//28 44//28 42//28
f 43//22 45//22 41//22 39//22
f 38//19 47//19 46//19 40//19
f 47//29 35//29 50//29 46//29
f 35//30 49//30 48//30 50//30
f 49//16 38//16 40//16 48//16
f 40//11 46//11 50//11 48//11
f 49//31 35//31 47//31 38//31
f 52//32 54//32 53//32 51//32
f 54//33 36//33 57//33 53//33
f 36//34 34//34 55//34 57//34
f 34//16 52//16 51//16 55//16
f 51//11 53//11 57//11 55//11
f 34//35 36//35 54//35 52//35
f 58//19 60//19 59//19 56//19
f 60//20 64//20 63//20 59//20
f 64//21 62//21 61//21 63//21
f 62//36 58//36 56//36 61//36
f 56//11 59//11 63//11 61//11
f 62//22 64//22 60//22 58//22
f 66//19 68//19 1//19 65//19
f 68//20 72//20 71//20 1//20
f 72//21 70//21 69//21 71//21
f 70//16 66//16 65//16 69//16
f 65//11 1//11 71//11 69//11
f 70//22 72//22 68//22 66//22
f 73//37 75//37 74//37 67//37
f 75//38 78//38 5//38 74//38
f 78//39 77//39 76//39 5//39
f 77//40 73//40 67//40 76//40
f 67//41 74//41 5//41 76//41
f 77//22 78//22 75//22 73//22
f 54//42 80//42 79//42 53//42
f 80//20 84//20 83//20 79//20
f 84//43 82//43 81//43 83//43
f 82//44 54//44 53//44 81//44
f 53//45 79//45 83//45 81//45
f 82//46 84//46 80//46 54//46
f 86//47 88//47 87//47 85//47
f 88//48 92//48 37//48 87//48
f 92//49 90//49 35//49 37//49
f 90//50 86//50 85//50 35//50
f 85//51 87//51 37//51 35//51
f 90//52 92//52 88//52 86//52
f 91//19 94//19 93//19 89//19
f 94//20 98//20 97//20 93//20
f 98//21 86//21 95//21 97//21
f 86//16 91//16 89//16 95//16
f 89//11 93//11 97//11 95//11
f 86//22 98//22 94//22 91//22
f 99//19 101//19 100//19 96//19
f 101//53 7//53 104//53 100//53
f 7//54 103//54 102//54 104//54
f 103//16 99//16 96//16 102//16
f 96//11 100//11 104//11 102//11
f 103//55 7//55 101//55 99//55
f 106//19 108//19 107//19 105//19
f 108//20 112//20 54//20 107//20
f 112//56 10//56 9//56 54//56
f 10//57 106//57 105//57 9//57
f 105//58 107//58 54//58 9//58
f 10//22 112//22 108//22 106//22
f 109//19 113//19 110//19 111//19
f 113//20 117//20 116//20 110//20
f 117//21 115//21 114//21 116//21
f 115//16 109//16 111//16 114//16
f 111//11 110//11 116//11 114//11
f 115//22 117//22 113//22 109//22
