# Blender v2.77 (sub 0) OBJ File: 'lego_obj1.blend'
# www.blender.org
mtllib lego_obj1.mtl
o Cube.000_Cube.003
v 0.990281 -0.181711 0.995667
v 0.990281 -0.181711 -1.004333
v 0.990281 -1.002111 -1.004333
v 0.990281 -1.002111 0.995667
v 1.998777 -0.181711 -1.004333
v 1.998777 -1.002111 -1.004333
v 1.998777 -0.181711 0.995667
v 1.998777 -1.002111 0.995667
v 0.998392 0.448773 0.407652
v 0.998392 0.448773 -0.402883
v 0.998392 -0.175869 -0.402883
v 0.998392 -0.175869 0.407652
v 2.006888 0.448773 -0.402883
v 2.006888 -0.175869 -0.402883
v 2.006888 0.448773 0.407652
v 2.006888 -0.175869 0.407652
v 1.000000 -1.000000 -1.000000
v 1.000000 -1.000000 1.000000
v -1.000000 -1.000000 1.000000
v -1.000000 -1.000000 -1.000000
v 1.000000 1.000000 -0.999999
v -1.000000 1.000000 -1.000000
v -1.000000 1.000000 1.000000
v 0.999999 1.000000 1.000001
vn -1.0000 -0.0000 0.0000
vn 0.0000 0.0000 -1.0000
vn 1.0000 0.0000 0.0000
vn 0.0000 -0.0000 1.0000
vn 0.0000 -1.0000 -0.0000
vn 0.0000 1.0000 0.0000
usemtl None
s 1
f 1//1 2//1 3//1 4//1
f 2//2 5//2 6//2 3//2
f 5//3 7//3 8//3 6//3
f 7//4 1//4 4//4 8//4
f 4//5 3//5 6//5 8//5
f 7//6 5//6 2//6 1//6
f 9//1 10//1 11//1 12//1
f 10//2 13//2 14//2 11//2
f 13//3 15//3 16//3 14//3
f 15//4 9//4 12//4 16//4
f 12//5 11//5 14//5 16//5
f 15//6 13//6 10//6 9//6
usemtl Material.001
f 17//5 18//5 19//5 20//5
f 21//6 22//6 23//6 24//6
f 17//3 21//3 24//3 18//3
f 18//4 24//4 23//4 19//4
f 19//1 23//1 22//1 20//1
f 21//2 17//2 20//2 22//2
