# Blender v2.77 (sub 0) OBJ File: 'obj51.blend'
# www.blender.org
mtllib obj51.mtl
o Cube.004_Cube.006
v -0.600596 0.002572 0.198911
v -0.600596 0.235378 0.198911
v -0.600596 0.002572 -0.201089
v -0.600596 0.235378 -0.201089
v 0.196688 0.002572 0.198911
v 0.196688 0.235378 0.198911
v 0.196688 0.002572 -0.201089
v 0.196688 0.235378 -0.201089
v -0.792432 0.558225 0.192642
v -0.792432 0.722582 0.192642
v -0.792432 0.558225 -0.194555
v -0.792432 0.722582 -0.194555
v -0.010200 0.557040 0.193904
v -0.007936 0.722582 0.192642
v -0.010200 0.557040 -0.198378
v -0.007936 0.722582 -0.194555
v -0.794248 0.726217 0.394434
v -0.794248 1.035314 0.394434
v -0.794248 0.726217 -0.392460
v -0.794248 1.035314 -0.392460
v -0.003769 0.726217 0.394434
v -0.003769 1.035314 0.394434
v -0.003769 0.726217 -0.392460
v -0.003769 1.035314 -0.392460
v -0.010200 1.034144 0.193904
v -0.010200 1.034144 -0.198378
v 0.395008 0.557040 0.193904
v 0.395008 1.034144 0.193904
v 0.395008 0.557040 -0.198378
v 0.395008 1.034144 -0.198378
v -0.794225 0.237296 0.392344
v -0.794225 0.556453 0.392344
v -0.802239 0.239237 -0.395735
v -0.794225 0.556453 -0.392255
v -0.004791 0.237296 0.392344
v -0.004791 0.556453 0.392344
v -0.004791 0.237296 -0.392255
v -0.004791 0.556453 -0.392255
v -0.796674 0.003347 -0.202595
v -0.796674 0.239237 -0.202595
v -0.796674 0.003347 -0.395735
v -0.004247 0.003347 -0.202595
v -0.004247 0.239237 -0.202595
v -0.004247 0.003347 -0.395735
v 0.397043 0.243064 0.395834
v 0.397043 0.555642 0.395834
v 0.397043 0.243064 -0.396593
v 0.397043 0.555642 -0.396593
v -0.597504 0.002855 0.396888
v -0.597504 0.239158 0.396888
v -0.597504 0.002855 0.201258
v -0.597504 0.239158 0.201258
v -0.202940 0.002855 0.396888
v -0.202940 0.239158 0.396888
v -0.202940 0.002855 0.201258
v -0.202940 0.239158 0.201258
vn -1.0000 0.0000 0.0000
vn 0.0000 0.0000 -1.0000
vn 1.0000 0.0000 0.0000
vn 0.0000 0.0000 1.0000
vn 0.0000 -1.0000 0.0000
vn 0.0000 1.0000 0.0000
vn -0.0024 0.0116 -0.9999
vn 0.9999 -0.0137 0.0000
vn -0.0008 0.0038 1.0000
vn -0.0015 -1.0000 0.0000
vn -0.9999 0.0126 0.0051
vn 0.0022 0.0054 -1.0000
vn -0.0012 -1.0000 -0.0012
vn -0.9998 -0.0118 0.0144
vn 0.0022 0.0074 -1.0000
vn 1.0000 0.0012 -0.0014
vn 0.0012 1.0000 -0.0051
vn -0.0108 0.0000 -0.9999
vn -0.0087 0.0000 1.0000
vn 0.0144 -0.9999 0.0000
vn 0.0020 1.0000 0.0000
usemtl None
s off
f 2//1 4//1 3//1 1//1
f 4//2 8//2 7//2 3//2
f 8//3 6//3 5//3 7//3
f 6//4 2//4 1//4 5//4
f 1//5 3//5 7//5 5//5
f 6//6 8//6 4//6 2//6
f 10//1 12//1 11//1 9//1
f 12//7 16//7 15//7 11//7
f 16//8 14//8 13//8 15//8
f 14//9 10//9 9//9 13//9
f 9//10 11//10 15//10 13//10
f 14//6 16//6 12//6 10//6
f 18//1 20//1 19//1 17//1
f 20//2 24//2 23//2 19//2
f 24//3 22//3 21//3 23//3
f 22//4 18//4 17//4 21//4
f 17//5 19//5 23//5 21//5
f 22//6 24//6 20//6 18//6
f 25//1 26//1 15//1 13//1
f 26//2 30//2 29//2 15//2
f 30//3 28//3 27//3 29//3
f 28//4 25//4 13//4 27//4
f 13//5 15//5 29//5 27//5
f 28//6 30//6 26//6 25//6
f 32//11 34//11 33//11 31//11
f 34//12 38//12 37//12 33//12
f 38//3 36//3 35//3 37//3
f 36//4 32//4 31//4 35//4
f 31//13 33//13 37//13 35//13
f 36//6 38//6 34//6 32//6
f 40//14 33//14 41//14 39//14
f 33//15 37//15 44//15 41//15
f 37//16 43//16 42//16 44//16
f 43//4 40//4 39//4 42//4
f 39//5 41//5 44//5 42//5
f 43//17 37//17 33//17 40//17
f 38//18 48//18 47//18 37//18
f 48//3 46//3 45//3 47//3
f 46//19 36//19 35//19 45//19
f 35//20 37//20 47//20 45//20
f 46//21 48//21 38//21 36//21
f 50//1 52//1 51//1 49//1
f 52//2 56//2 55//2 51//2
f 56//3 54//3 53//3 55//3
f 54//4 50//4 49//4 53//4
f 49//5 51//5 55//5 53//5
f 54//6 56//6 52//6 50//6
